<svg viewBox="0 0 100 100" xmlns="http://www.w3.org/2000/svg"><path fill="#283593" d="M0 0h100v100H0z"/><path fill="#fff" d="M81.052 33.9a6.455 6.455 0 0 0-6.448 6.448c0 .78.146 1.523.399 2.215-5.348 2.284-12.798 6.36-16.146 12.33-1.47-6.69-7.345-15.11-11.47-20.403a6.435 6.435 0 0 0 2.513-5.097 6.455 6.455 0 0 0-6.448-6.448 6.455 6.455 0 0 0-6.448 6.448 6.456 6.456 0 0 0 6.448 6.449c.622 0 1.218-.094 1.787-.258 1.435 5.51 2.565 13.692-.707 20.246-4.248-4.767-13.288-8.448-19.372-10.514a6.409 6.409 0 0 0 .237-1.713 6.455 6.455 0 0 0-6.449-6.447 6.457 6.457 0 0 0-6.448 6.448 6.456 6.456 0 0 0 6.448 6.45 6.436 6.436 0 0 0 5.077-2.486c3.41 3.302 7.566 8.417 8.961 14.675v11.271c12.08 5.179 25.412 4.241 35.473 0v-3.797l.02.013c-.01-.032-.014-.067-.02-.1v-7.914c1.269-6.444 5.198-12.49 8.353-16.521a6.42 6.42 0 0 0 4.239 1.6 6.455 6.455 0 0 0 6.449-6.448 6.455 6.455 0 0 0-6.448-6.448zM39.18 29.392a4.28 4.28 0 0 1 4.273-4.274 4.28 4.28 0 0 1 4.276 4.274 4.28 4.28 0 0 1-4.276 4.274 4.278 4.278 0 0 1-4.274-4.274zM18.948 47.88a4.28 4.28 0 0 1-4.274-4.275 4.28 4.28 0 0 1 4.274-4.273 4.28 4.28 0 0 1 4.274 4.273 4.28 4.28 0 0 1-4.274 4.275zm62.104-3.258a4.28 4.28 0 0 1-4.274-4.274 4.278 4.278 0 0 1 4.274-4.274 4.28 4.28 0 0 1 4.274 4.274 4.278 4.278 0 0 1-4.274 4.274z"/></svg>